<?xml version="1.0" standalone="no"?>
<!DOCTYPE svg PUBLIC "-//W3C//DTD SVG 20010904//EN"
 "http://www.w3.org/TR/2001/REC-SVG-20010904/DTD/svg10.dtd">
<svg version="1.0" xmlns="http://www.w3.org/2000/svg"
 width="320.000000pt" height="320.000000pt" viewBox="0 0 320.000000 320.000000"
 preserveAspectRatio="xMidYMid meet">
<metadata>
Created by potrace 1.11, written by Peter Selinger 2001-2013
</metadata>
<g transform="translate(0.000000,320.000000) scale(0.100000,-0.100000)"
fill="#000000" stroke="none">
<path d="M400 3150 l0 -50 -100 0 -100 0 0 -50 0 -50 -50 0 -50 0 0 -50 0 -50
-50 0 -50 0 0 -1300 0 -1300 50 0 50 0 0 -50 0 -50 50 0 50 0 0 -50 0 -50 50
0 50 0 0 -50 0 -50 1300 0 1300 0 0 50 0 50 50 0 50 0 0 50 0 50 50 0 50 0 0
50 0 50 50 0 50 0 0 1300 0 1300 -50 0 -50 0 0 50 0 50 -50 0 -50 0 0 50 0 50
-100 0 -100 0 0 50 0 50 -1200 0 -1200 0 0 -50z m2400 -100 l0 -50 100 0 100
0 0 -50 0 -50 50 0 50 0 0 -1300 0 -1300 -50 0 -50 0 0 -50 0 -50 -50 0 -50 0
0 -50 0 -50 -1300 0 -1300 0 0 50 0 50 -50 0 -50 0 0 50 0 50 -50 0 -50 0 0
1300 0 1300 50 0 50 0 0 50 0 50 100 0 100 0 0 50 0 50 1200 0 1200 0 0 -50z"/>
<path d="M1100 2950 l0 -50 -150 0 -150 0 0 -50 0 -50 -50 0 -50 0 0 -50 0
-50 -50 0 -50 0 0 -50 0 -50 -50 0 -50 0 0 -50 0 -50 -50 0 -50 0 0 -50 0 -50
-50 0 -50 0 0 -550 0 -550 100 0 100 0 0 -100 0 -100 50 0 50 0 0 -50 0 -50
1000 0 1000 0 0 50 0 50 50 0 50 0 0 100 0 100 100 0 100 0 0 550 0 550 -50 0
-50 0 0 50 0 50 -50 0 -50 0 0 50 0 50 -50 0 -50 0 0 50 0 50 -50 0 -50 0 0
50 0 50 -50 0 -50 0 0 50 0 50 -150 0 -150 0 0 50 0 50 -500 0 -500 0 0 -50z
m1000 -200 l0 -50 -150 0 -150 0 0 50 0 50 150 0 150 0 0 -50z m200 -100 l0
-50 -50 0 -50 0 0 50 0 50 50 0 50 0 0 -50z m-1200 -900 l0 -350 -100 0 -100
0 0 350 0 350 100 0 100 0 0 -350z m1200 0 l0 -350 -100 0 -100 0 0 350 0 350
100 0 100 0 0 -350z"/>
</g>
</svg>
