<svg version="1" xmlns="http://www.w3.org/2000/svg" width="682.667" height="682.667" viewBox="0 0 512.000000 512.000000"><path d="M234 47.1c-34.1 3.8-67.3 17-94.5 37.4-10.2 7.7-27 23.8-34.8 33.5-47.5 58.9-57.1 139.5-24.6 207.8 16.1 33.9 43.5 64.3 75.4 83.5 67.2 40.6 154.3 36.3 217-10.8 10.2-7.7 27-23.8 34.8-33.5 47.5-58.9 57.1-139.5 24.6-207.8-19.1-40.2-52.2-73.4-92.5-92.7-31-14.8-70.4-21.3-105.4-17.4zm39.8 5c43.2 4.7 81.4 22.3 112.4 51.8 27 25.6 46.5 61 54.7 99.1 7.7 36.2 3.8 78.4-10 107-24.1 50.1-71.3 86.7-128 99.4-6.3 1.4-14.4 2.8-18.2 3.2l-6.7.7.2-55.1c.3-54.2.3-55.1 2.4-57.9 4.3-5.8 9.6-7.4 29.1-8.9 64.6-5 107.4-16.3 121-31.9l3.5-4-.5-20.9c-.3-11.5-1-21.2-1.5-21.5-.5-.3-1.2-3.7-1.6-7.6-.4-3.8-1.1-7.2-1.5-7.5-.5-.3-1.1-2.6-1.5-5.3-.4-2.6-1.1-4.7-1.5-4.7-.5 0-1.2-2-1.5-4.5-.4-2.5-1.1-4.5-1.6-4.5s-1.2-1.6-1.6-3.5c-.3-1.9-1-3.5-1.4-3.5-.5 0-1.1-1.4-1.5-3-.4-1.7-1-3-1.5-3s-1.1-1.4-1.5-3c-.4-1.7-1-3-1.5-3s-1.1-1.4-1.5-3c-.4-1.7-1.1-3-1.6-3s-.9-.6-.9-1.4c0-.8-.6-2.1-1.2-2.8-.7-.7-2-2.7-2.8-4.3-.8-1.7-2.1-3.4-2.7-3.8-.7-.4-1.3-1.3-1.3-1.9 0-.6-1.1-2.1-2.5-3.4-1.4-1.3-2.5-2.7-2.5-3.3 0-.5-1.3-2.3-3-3.9-1.6-1.7-3-3.3-3-3.7 0-.7-17.9-18.5-18.6-18.5-.3 0-1.9-1.4-3.6-3-1.6-1.7-3.4-3-3.9-3-.6 0-2-1.1-3.3-2.5-1.3-1.4-2.8-2.5-3.4-2.5-.6 0-1.5-.6-1.9-1.3-.4-.7-2.4-1.9-4.3-2.7-1.9-.8-3.9-2-4.3-2.7-.4-.7-1.5-1.3-2.2-1.3-.8 0-1.5-.4-1.5-.9s-1.3-1.2-3-1.6c-1.6-.4-3-1-3-1.5s-1.3-1.1-3-1.5c-1.6-.4-3-1-3-1.5s-1.3-1.1-3-1.5c-1.6-.4-3-1-3-1.5 0-.4-1.6-1.1-3.5-1.4-1.9-.4-3.5-1.1-3.5-1.6s-2-1.2-4.5-1.6c-2.5-.3-4.5-1-4.5-1.5 0-.4-2.1-1.1-4.7-1.5-2.7-.4-5-1-5.3-1.5-.3-.4-3.7-1.1-7.5-1.5-3.9-.4-7.3-1.2-7.7-1.8-1-1.5-57.6-1.5-58.6 0-.4.6-3.8 1.4-7.7 1.8-3.8.4-7.2 1.1-7.5 1.5-.3.5-2.6 1.1-5.2 1.5-2.7.4-4.8 1.1-4.8 1.5 0 .5-2 1.2-4.5 1.5-2.5.4-4.5 1.1-4.5 1.6s-1.6 1.2-3.5 1.6c-1.9.3-3.5 1-3.5 1.4 0 .5-1.3 1.1-3 1.5-1.6.4-3 1-3 1.5s-1.3 1.1-3 1.5c-1.6.4-3 1-3 1.5s-1.3 1.1-3 1.5c-1.6.4-3 1.1-3 1.6s-.7.9-1.5.9c-.7 0-1.8.6-2.2 1.3-.4.7-2.4 1.9-4.3 2.7-1.9.8-3.9 2-4.3 2.7-.4.7-1.3 1.3-1.9 1.3-.6 0-2.1 1.1-3.4 2.5-1.3 1.4-2.7 2.5-3.3 2.5-.5 0-2.3 1.3-3.9 3-1.7 1.6-3.3 3-3.6 3-.7 0-18.6 17.8-18.6 18.5 0 .4-1.3 2-3 3.7-1.6 1.6-3 3.4-3 3.9 0 .6-1 2-2.3 3.2-1.2 1.2-2.9 3.5-3.7 5.2-.8 1.6-2.1 3.4-2.7 3.8-.7.4-1.3 1.5-1.3 2.2 0 .8-.4 1.5-1 1.5-.5 0-1.2 1.1-1.6 2.5-.3 1.4-1 2.5-1.4 2.5-.5 0-1.1 1.3-1.5 3-.4 1.6-1 3-1.5 3s-1.1 1.3-1.5 3c-.4 1.6-1 3-1.5 3s-1.1 1.3-1.5 3c-.4 1.6-1 3-1.5 3-.4 0-1.1 1.6-1.4 3.5-.4 1.9-1.1 3.5-1.6 3.5s-1.2 2-1.6 4.5c-.3 2.5-1 4.5-1.5 4.5-.4 0-1.1 2.1-1.5 4.7-.4 2.7-1 5-1.5 5.3-.4.3-1.1 3.7-1.5 7.5-.4 3.9-1.1 7.3-1.6 7.6-.5.3-1.2 9.3-1.6 20-.5 14.2-.8 17.9-1.3 13.9-1.9-14.9-.2-39.8 3.7-56.7 8.3-36 30.6-74.1 55.5-94.9 38.5-32.1 91-48.5 138.7-43.3zm57.9 43.5c8.4 2.9 14.9 7.1 25 15.9C371.9 125 375.6 139 364 139c-5.5 0-20.2-4.5-27.6-8.4-14-7.5-31.9-27.5-29.8-33.5 1.7-4.8 13.5-5.5 25.1-1.5zm-260 109.1c-.3 1-.5.4-.5-1.2 0-1.7.2-2.4.5-1.8.2.7.2 2.1 0 3zm15.5 60.1c19.4 13.3 57.7 22.1 115.1 26.6 19.5 1.5 24.8 3.1 29.1 8.9 2.1 2.8 2.1 3.7 2.4 57.3l.3 54.5-2.3-.5c-14.2-3.2-21.8-5.1-29.8-7.8-9.1-3.1-9.4-3.2-6-3.9 6.1-1.3 6-.5 6-43.6 0-38-.1-39.4-2-41.3-3.7-3.7-8.4-1.9-10 3.8-.6 2.2-1 18.2-1 40.6 0 33 .2 37.1 1.7 38.8 2.5 2.7.7 2.2-10.2-3-19.3-9.3-37.4-22.1-51.5-36.2-6.5-6.5-18.8-20.7-15-17.3 2.1 1.9 6.7 1.6 9-.7 1.9-1.9 2-3.3 2-21s-.1-19.1-2-21c-3.5-3.5-8.1-2.1-9.9 3.1-.6 1.9-1.1 10.5-1.1 20.7v17.5l-2-2.6c-1.1-1.4-2-2.8-2-3.1 0-.3-2.1-3.8-4.6-7.7-10.4-16-20.2-40.3-24.5-60.4-2.6-12.6-2.5-13.6 1-8.7 1.7 2.2 4.9 5.4 7.3 7zM409 353.4c0 .2-.8 1-1.7 1.7-1.6 1.3-1.7 1.2-.4-.4 1.3-1.6 2.1-2.1 2.1-1.3zm-3 4c0 .2-.8 1-1.7 1.7-1.6 1.3-1.7 1.2-.4-.4 1.3-1.6 2.1-2.1 2.1-1.3z"/><path d="M392 298c-1.9 1.9-2 3.3-2 21.8 0 18 .2 20 1.8 21.5 2.2 2 4.1 2.1 6.2.4 3.4-2.7 4-6.6 4-24.2 0-16.2-.2-17.7-2-19.5-1.1-1.1-2.9-2-4-2s-2.9.9-4 2zM357.7 309.2c-3.3 2.5-3.7 6.7-3.7 34.7 0 25.7.1 27.9 1.8 29.4 2.6 2.4 4.3 2.1 8-1.2l3.2-3v-28.5c0-27.3-.1-28.7-2-30.6-2.3-2.3-4.9-2.6-7.3-.8zM316.8 314.1c-3.3 1.9-3.8 7.8-3.8 45.5 0 34.7.1 37.2 1.8 38.7 2.6 2.4 4.3 2.1 8-1.2l3.2-3v-38.5c0-37.3-.1-38.7-2-40.6-2.2-2.2-4.6-2.5-7.2-.9zM151.7 309.2c-3.3 2.5-3.7 6.7-3.7 34.7 0 25.7.1 27.9 1.8 29.4 2.5 2.3 6.8 2.1 9.2-.3 1.9-1.9 2-3.3 2-31.5s-.1-29.6-2-31.5c-2.3-2.3-4.9-2.6-7.3-.8z"/></svg>