<svg xmlns="http://www.w3.org/2000/svg" xmlns:xlink="http://www.w3.org/1999/xlink">

<!-- 豆瓣 -->
<symbol class="svg-icon" viewBox="0 0 1024 1024" version="1.1" fill-rule="evenodd" clip-rule="evenodd" stroke-linejoin="round" stroke-miterlimit="1.414">
  <path d="M88 72.9h848v95.5H88z"></path>
  <path d="M88 72.9h848v95.5H88zM862.3 641.5V268H161.7v373.5h700.6zM263.4 363.4h498.4v182.5H263.4V363.4z"></path>
  <path d="M862.3 641.5V268H161.7v373.5h700.6zM263.4 363.4h498.4v182.5H263.4V363.4zM710.8 856.7c30.5-46.7 59.3-100.8 85.9-162.2l-102-37.2c-26.5 72.8-57.4 139.4-92.5 199.4H424.9c-29.4-77.8-62.6-144.3-99.8-199.4l-93.8 37.2c38.6 58 69.9 111.9 93.8 162.2H64v94.5h896v-94.5H710.8z"></path>
  <path d="M710.8 856.7c30.5-46.7 59.3-100.8 85.9-162.2l-102-37.2c-26.5 72.8-57.4 139.4-92.5 199.4H424.9c-29.4-77.8-62.6-144.3-99.8-199.4l-93.8 37.2c38.6 58 69.9 111.9 93.8 162.2H64v94.5h896v-94.5H710.8z"></path>
</symbol>

<!-- 知乎 -->
<symbol class="svg-icon" viewBox="0 0 1024 1024" version="1.1" fill-rule="evenodd" clip-rule="evenodd" stroke-linejoin="round" stroke-miterlimit="1.414">
  <path d="M543.8 558.2s0-67.4-32.8-70.8c-32.8-3.5-134.7 0-134.7 0V280.1h152s-1.7-69.1-31-69.1H250.1l41.5-110.5s-62.2 3.5-84.6 43.2C184.5 183.4 113.7 382 113.7 382s24.2 10.4 63.9-19 53.5-81.2 53.5-81.2l72.5-3.5 1.7 210.7s-126.1-1.7-152 0c-25.9 1.7-39.7 70.8-39.7 70.8h191.8s-17.3 117.5-65.6 202.1c-50.1 84.6-143.4 152-143.4 152s67.4 27.6 133-10.4c65.6-39.7 114-210.7 114-210.7l153.7 191.8s13.8-91.5-1.7-117.5c-17.3-25.9-107.1-129.5-107.1-129.5l-39.7 34.5 27.6-114 167.6 0.1zM583.5 205.8l-1.7 623.5H644l22.5 77.7 108.8-77.7H929V205.8H583.5z m276.4 554.5h-72.5l-91.5 70.8-20.9-70.8h-19V276.6h203.9v483.7z"></path>
</symbol>

</svg>
