<svg version="1" xmlns="http://www.w3.org/2000/svg" width="1600" height="1600" viewBox="0 0 1200.000000 1200.000000"><path d="M275.5 1.1c-70.3 5.6-136.9 36.5-187.4 87C36.8 139.4 6.6 205.3 1 277.9c-.6 8.8-1 97.8-1 253.8V772h173c118.8 0 173-.3 173-1 0-.8 31.7-.9 101.6-.4l101.6.7-30.1-60.1L489 651l-101.6-.2-101.5-.3-63-125.3-63-125.2H1200V0L743.3.1c-251.3.1-461.7.6-467.8 1z"/><path d="M688 487.9c16 31.8 29.6 58.6 30.3 59.4 1.1 1.5 11 1.7 99.6 2.3l98.4.7 62.4 125.4c34.2 69 62.3 125.7 62.3 126 0 .3-11.4.4-25.2.2-13.9-.2-248.2-.3-520.5-.2L0 802v398h454.3c303.2 0 458.8-.3 467.8-1 87-6.7 164.8-49.2 217.2-118.7 35-46.3 54.4-97.5 59.7-157.3.6-7.4 1-97.8 1-252.3V430H658.9l29.1 57.9z"/><path d="M587.6 551.6c-17.9 4.3-32.8 19.3-37.1 37.5-6.3 26.8 10.6 54 37.6 60.4 26.8 6.3 54-10.6 60.4-37.6 8.5-36.2-24.7-69.1-60.9-60.3z"/></svg>