<svg version="1" xmlns="http://www.w3.org/2000/svg" width="1440" height="1440" viewBox="0 0 1080.000000 1080.000000"><path d="M511.5 202.6c-1.6.2-7.7.9-13.5 1.5-53.8 5.7-108.9 26.8-155.2 59.2-51.5 36.1-92.2 86.3-117.2 144.7-13.4 31.1-21.5 62.7-25.7 100-1.5 13.5-1.5 52.4 0 66 8.4 75.5 36.8 139.5 86.6 195.1l10.8 12.1-49.4 49.4C220.7 857.8 199 880 199.5 880c.6-.1 75.3.2 166 .5 172.2.7 192.5.3 219.4-3.4C712.9 859 820.2 768.8 859.8 646c18.3-56.6 21.6-117 9.6-174.5-13.2-62.9-44.8-121.9-90.2-168.4-1.2-1.2 5.9-8.7 48.5-51.3l49.8-49.8-181.5.1c-99.8.1-182.8.4-184.5.5zm48 172.5c68.6 8.4 125.4 60 140.5 127.7 4.6 20.7 4.8 48.5.4 69.2-7.3 34.9-28.1 69.7-54.3 90.9-23.8 19.3-46 30.1-74.4 36.3-8.8 1.9-13.2 2.2-32.2 2.2-24.2 0-32.4-1.2-51.6-7.4-35.1-11.5-68.7-38-87.8-69.2-11-18.2-18.7-38.4-22.2-58.7-2.3-13.2-2.7-37.6-.9-50.1 7.7-54.1 42.6-102.5 90.5-125.5 15.9-7.6 35-13.3 51.5-15.4 9.7-1.3 30.3-1.2 40.5 0z"/></svg>